<svg width="30" height="19" viewBox="0 0 30 19" fill="none" xmlns="http://www.w3.org/2000/svg">
<path d="M24.8938 10.7C24.4088 10.0849 24.5475 9.81121 24.8938 9.26135C24.9 9.25507 28.9037 3.69872 29.3162 1.81438L29.3188 1.81313C29.5238 1.12643 29.3188 0.621765 28.3275 0.621765H25.0475C24.2125 0.621765 23.8275 1.05487 23.6213 1.53945C23.6213 1.53945 21.9513 5.55418 19.5887 8.1566C18.8263 8.90858 18.4738 9.14962 18.0575 9.14962C17.8525 9.14962 17.5338 8.90858 17.5338 8.22188V1.81313C17.5338 0.989594 17.3 0.621765 16.6087 0.621765H11.4513C10.9275 0.621765 10.6163 1.00591 10.6163 1.3637C10.6163 2.14455 11.7975 2.32407 11.92 4.521V9.28771C11.92 10.3322 11.7312 10.5243 11.3125 10.5243C10.1975 10.5243 7.49125 6.49321 5.8875 1.87966C5.56375 0.984572 5.2475 0.62302 4.40625 0.62302H1.125C0.18875 0.62302 0 1.05613 0 1.54071C0 2.39688 1.115 6.6539 5.185 12.278C7.8975 16.117 11.7175 18.1972 15.1925 18.1972C17.2812 18.1972 17.5363 17.7352 17.5363 16.9406C17.5363 13.2723 17.3475 12.9258 18.3937 12.9258C18.8787 12.9258 19.7137 13.1669 21.6637 15.0186C23.8925 17.2142 24.2588 18.1972 25.5063 18.1972H28.7862C29.7212 18.1972 30.195 17.7352 29.9225 16.8238C29.2987 14.9068 25.0838 10.9637 24.8938 10.7Z" fill="#2F3035"/>
</svg>
